<svg width="45" height="51" viewBox="0 0 45 51" fill="none" xmlns="http://www.w3.org/2000/svg">
<mask id="path-1-inside-1_26_9" fill="white">
<path d="M42.0732 6.56414C38.3272 3.28713 33.6936 1.19453 28.7582 0.550965C23.8229 -0.0925984 18.8076 0.741781 14.3465 2.94859C9.88541 5.1554 6.17888 8.63552 3.69565 12.9489C1.21241 17.2622 0.0639942 22.2151 0.395631 27.1811C0.727263 32.1471 2.52405 36.9033 5.55878 40.8482C8.5935 44.793 12.7299 47.7494 17.4448 49.3434C22.1597 50.9375 27.2414 51.0976 32.0474 49.8035C36.8533 48.5094 41.1675 45.8192 44.4445 42.0732L43.8441 41.5479C40.671 45.1752 36.4935 47.7801 31.8399 49.0331C27.1864 50.2862 22.2657 50.1312 17.7003 48.5877C13.1348 47.0442 9.12961 44.1815 6.1911 40.3617C3.25258 36.5419 1.51276 31.9365 1.19164 27.128C0.870517 22.3194 1.98252 17.5235 4.38703 13.3469C6.79155 9.1703 10.3806 5.80051 14.7002 3.66366C19.0199 1.52681 23.8762 0.718888 28.6551 1.34205C33.4339 1.96521 37.9207 3.99147 41.5479 7.16459L42.0732 6.56414Z"/>
</mask>
<path d="M42.0732 6.56414C38.3272 3.28713 33.6936 1.19453 28.7582 0.550965C23.8229 -0.0925984 18.8076 0.741781 14.3465 2.94859C9.88541 5.1554 6.17888 8.63552 3.69565 12.9489C1.21241 17.2622 0.0639942 22.2151 0.395631 27.1811C0.727263 32.1471 2.52405 36.9033 5.55878 40.8482C8.5935 44.793 12.7299 47.7494 17.4448 49.3434C22.1597 50.9375 27.2414 51.0976 32.0474 49.8035C36.8533 48.5094 41.1675 45.8192 44.4445 42.0732L43.8441 41.5479C40.671 45.1752 36.4935 47.7801 31.8399 49.0331C27.1864 50.2862 22.2657 50.1312 17.7003 48.5877C13.1348 47.0442 9.12961 44.1815 6.1911 40.3617C3.25258 36.5419 1.51276 31.9365 1.19164 27.128C0.870517 22.3194 1.98252 17.5235 4.38703 13.3469C6.79155 9.1703 10.3806 5.80051 14.7002 3.66366C19.0199 1.52681 23.8762 0.718888 28.6551 1.34205C33.4339 1.96521 37.9207 3.99147 41.5479 7.16459L42.0732 6.56414Z" stroke="#98887A" stroke-width="2" mask="url(#path-1-inside-1_26_9)"/>
</svg>
